<svg xmlns="http://www.w3.org/2000/svg" id="logo" width="156" height="110" viewBox="0 0 288.79 203.47"><title>bhh_vertical_CAB_rgb</title><path d="M306,96.26a37.64,37.64,0,1,0,37.64,37.64A37.69,37.69,0,0,0,306,96.26Zm0,73.39a35.75,35.75,0,1,1,35.74-35.75A35.79,35.79,0,0,1,306,169.65ZM334.34,143a1.06,1.06,0,1,0-1.06-1.06A1.06,1.06,0,0,0,334.34,143Zm-56.67,0a1.06,1.06,0,1,0-1.05-1.05A1,1,0,0,0,277.67,143Zm.93-8.21-3.94-.1,0-2.07a1,1,0,0,1,1-1.11.89.89,0,0,1,.89.7,1,1,0,0,1,1-.73,1,1,0,0,1,1,1.17Zm-2.73-2.42a.41.41,0,0,0-.43.45l0,1.05.82,0,0-1A.41.41,0,0,0,275.87,132.36Zm1.6,0a.45.45,0,0,0-.46.49l0,1.09.9,0,0-1.08C277.91,132.52,277.76,132.33,277.47,132.32Zm1.48-2.84-3.85-.83.58-2.72.72.15L276,128l.81.17.41-1.87.72.16-.4,1.86.88.19.41-1.91.72.16ZM281,122.7l-1.59.17-.23.57,1.29.54-.33.77-3.63-1.52.71-1.7a1.24,1.24,0,0,1,1.69-.74,1.15,1.15,0,0,1,.74,1.26l1.73-.25Zm-2.43-1.11a.53.53,0,0,0-.71.33l-.35.82,1,.41.33-.82A.52.52,0,0,0,278.58,121.59Zm5.05-3.48-2,.12.13.46,1,.67-.47.7-3.28-2.18.46-.7,1.46,1-.69-2.13.57-.86.67,2.32,2.67-.24Zm1.09-2.37-.15-.79a1.72,1.72,0,0,0,1.26-.53c.32-.34.32-.63.16-.79-.5-.48-1.72,1.49-2.8.46a1.33,1.33,0,0,1,.18-1.91,2.23,2.23,0,0,1,1.46-.73l.13.78a1.66,1.66,0,0,0-1.11.52c-.25.26-.27.51-.1.68.44.42,1.71-1.5,2.77-.48.52.5.55,1.25-.18,2A2.31,2.31,0,0,1,284.72,115.74Zm6.33-4.79-.95-1.36-1.52,1.07.95,1.36-.68.48-2.27-3.23.69-.48.89,1.27,1.52-1.07-.89-1.27.69-.48,2.26,3.22Zm2.66-1.51L292,105.89l.75-.37,1.72,3.55Zm4.89-1.91-1.15-1.11-.58.18.41,1.34-.81.25-1.16-3.77,1.77-.54a1.23,1.23,0,0,1,1.64.82,1.15,1.15,0,0,1-.48,1.37l1.29,1.18Zm-.7-2.58a.54.54,0,0,0-.72-.33l-.85.26.32,1,.84-.26A.54.54,0,0,0,297.9,105Zm3.59,1.92L301,103l2.77-.33.08.74-1.94.23.1.82,1.9-.22.08.73-1.89.22.1.89,1.94-.22.08.73Zm10.4.27.3-1.63-1.83-.34-.3,1.64-.83-.16.72-3.87.83.15-.29,1.52,1.84.34.27-1.53.84.16-.71,3.87Zm5.42,1.79,0-.71-1.57-.64-.48.53-.88-.36,2.89-3.08,1,.39-.07,4.23Zm.15-3.29L316.25,107l1.14.46Zm2.64,4.78,1.69-2.72-1-.61.39-.63,2.67,1.66-.39.63-1-.61-1.69,2.72Zm5.14,4,1.13-1.22L325,111.9l-1.13,1.22-.61-.56,2.66-2.9.62.56-1,1.14,1.36,1.26,1.05-1.14.63.57L325.87,115Zm3.63,4.39.4-.59-1-1.37-.69.19-.55-.77,4.08-1.07.61.85-2.3,3.54Zm1.88-2.7-1.73.5.71,1Zm.67,7.56,2.2-1.72-2.75.45-.36-.82,3.17-2.61.37.87-2.34,1.77,2.92-.45.26.6-2.31,1.82,2.88-.5.38.86-4.07.54Zm1.67,6,.61-.38-.32-1.66-.71-.11-.18-.93,4.16.72.2,1-3.57,2.25Zm2.83-1.68-1.78-.27.25,1.2Zm-2.53,5,1.62,0,2.29-1.56,0,1-1.55,1,1.59.94,0,1L335,133.78l-1.62,0Zm-53.14,18.9,1.38-.91-1-1.55-1.39.91-.46-.71,3.3-2.16.46.71-1.29.84,1,1.56,1.3-.85.46.71-3.3,2.16Zm3.46,1.35a2.06,2.06,0,1,1,0,2.9A2,2,0,0,1,283.71,153.23Zm2.3,2.31a1.2,1.2,0,1,0-1.76.06A1.19,1.19,0,0,0,286,155.54Zm4.13,5.5,1.54-2.39-2.48,1.79-.31-.2.61-3L288,159.64l-.71-.45,2.14-3.32,1,.64-.52,2.59,2.13-1.56,1,.65-2.13,3.31Zm3.23,1.66L294.8,159l2.6,1-.27.69-1.82-.71-.3.78,1.78.69-.26.69-1.79-.7-.32.84,1.81.71-.26.68Zm5,1.15.58-.56a1.73,1.73,0,0,0,1.13.77c.46.09.71-.07.76-.29.13-.68-2.19-.65-1.9-2.1a1.32,1.32,0,0,1,1.7-.89,2.14,2.14,0,0,1,1.39.84l-.57.52a1.65,1.65,0,0,0-1-.64c-.35-.07-.58,0-.62.27-.12.61,2.18.64,1.89,2.08-.13.71-.75,1.14-1.79.94A2.36,2.36,0,0,1,298.37,163.85Zm5.59,1.41.13-3.94,2.79.09,0,.74-1.95-.06,0,.82,1.91.06,0,.74-1.9-.06,0,.9,1.95.06,0,.74Zm7.73-.45-1-1.27-.6.1.22,1.38-.83.14-.62-3.9,1.82-.29a1.24,1.24,0,0,1,1.52,1.05,1.15,1.15,0,0,1-.68,1.29l1.12,1.34Zm-.34-2.66a.53.53,0,0,0-.66-.43l-.87.14.16,1,.88-.14A.53.53,0,0,0,311.35,162.15Zm4.7,1.52-2.75-3.2.89-.32,2.05,2.48v-3.22l.89-.31-.1,4.22Zm4.39-1.86-1.86-3.48.73-.4,1.87,3.48Zm1.66-3.19a2,2,0,0,1,.47-2.89,1.78,1.78,0,0,1,1.89-.21l-.36.72a1.07,1.07,0,0,0-1.09.09,1.24,1.24,0,0,0-.22,1.78,1.22,1.22,0,0,0,1.77.29,1.06,1.06,0,0,0,.4-1l.78-.15A1.77,1.77,0,0,1,325,159,2,2,0,0,1,322.1,158.62Zm5.95-2.31-2.88-2.69,1.9-2,.55.5-1.34,1.42.61.57,1.3-1.4.54.51-1.3,1.4.65.61,1.34-1.43.53.51Zm2.88-4.16-.29-.74a1.75,1.75,0,0,0,1.13-.76c.25-.39.2-.69,0-.81-.58-.37-1.42,1.78-2.66,1a1.3,1.3,0,0,1-.18-1.9,2.16,2.16,0,0,1,1.3-1l.26.73a1.73,1.73,0,0,0-1,.73c-.2.3-.18.55,0,.67.52.35,1.41-1.78,2.64-1,.6.39.78,1.13.19,2A2.26,2.26,0,0,1,330.93,152.15Zm-32-19.35h-6.52V117.21h6.35c2.66,0,4.44,1.62,4.44,4a3.65,3.65,0,0,1-2.31,3.5,4,4,0,0,1,2.61,3.78C303.5,131.13,301.71,132.8,298.93,132.8Zm-4.34-2h4a2.39,2.39,0,0,0,2.69-2.51,2.46,2.46,0,0,0-2.69-2.5h-4Zm0-7h3.86a2.24,2.24,0,0,0,2.5-2.32,2.27,2.27,0,0,0-2.5-2.35h-3.86Zm25.22,9h-2.18v-7h-8.09v7h-2.18V117.21h2.18v6.59h8.09v-6.59h2.18Zm-15,18.57h-2.17v-7h-8.09v7h-2.18v-15.6h2.18v6.6h8.09v-6.6h2.17Zm9.17.27a7.82,7.82,0,0,1-6-2.48l-.07-.08,1.32-1.7.1.13a6.22,6.22,0,0,0,4.7,2.16c2.56,0,3.47-1.31,3.47-2.53,0-1.71-1.8-2.19-3.89-2.76-2.43-.65-5.18-1.39-5.18-4.45,0-2.56,2.27-4.41,5.42-4.41a7.39,7.39,0,0,1,5.52,2.2l.08.09-1.33,1.62-.1-.12a5.69,5.69,0,0,0-4.34-1.8c-1.77,0-3,1-3,2.3s1.67,1.86,3.59,2.38c2.57.7,5.49,1.49,5.49,4.81C319.81,149.25,318.29,151.64,314,151.64Z" transform="translate(-161.6 -96.26)" fill="#552448"/><path d="M310.87,225.57a20.21,20.21,0,0,1-9.11-2.29l-1.09,1.64H298.8l-.37-11.07h1.88c1.61,5.14,4.85,9.94,11,9.94,4.76,0,7.15-2.61,7.15-6,0-2.56-2.07-4.89-5.18-6.06s-4.61-1.49-7.46-2.66c-4-1.63-6.43-4.16-6.43-8.41,0-5,5-8.77,10.88-8.77a16.55,16.55,0,0,1,8.18,2.24l1-1.54h1.87l.2,10.73h-1.92c-1.5-4.94-3.61-9.66-9.68-9.66-3.21,0-6.18,2.29-6.18,5s1.87,4.55,4.66,5.77c2.49,1.08,4.77,1.68,7.05,2.61,4.2,1.64,7.58,3.66,7.58,8.7C323.09,221.51,317.85,225.57,310.87,225.57Z" transform="translate(-161.6 -96.26)" fill="#552448"/><path d="M188.3,216.13c0-6-5.55-8-9.43-8.48v-.19c4-.93,7.66-3.13,7.66-7.84,0-5.28-5.09-7.05-9.38-7.05H161.79v1.63a9.51,9.51,0,0,1,2.94.75,2.33,2.33,0,0,1,1.31,2.33v23.24a2.19,2.19,0,0,1-1.31,2.24,15.26,15.26,0,0,1-3.13.52v1.63h15.78C182.52,224.91,188.3,222.16,188.3,216.13Zm-7.23-16c0,4-2.15,6.82-7.28,6.82h-2.9V194.48c1.12,0,2.9-.09,3.69-.09C177.47,194.39,181.07,195.37,181.07,200.08Zm1.63,15.22c0,3.83-1.45,7.79-7,7.79-2.8,0-4.81-1-4.81-2.89V208.81c.84,0,2.85-.09,4.39-.09C180.09,208.72,182.7,211.47,182.7,215.3Z" transform="translate(-161.6 -96.26)" fill="#552448"/><path d="M221.56,215.39h-1.64a23.82,23.82,0,0,1-3.64,6.58c-1.12,1.17-3.71,1.08-6.14,1.08-4.71,0-5.5-.42-5.5-4.25v-9.71h3c2.8,0,3.4.75,4,1.4A9.8,9.8,0,0,1,213,214.6h1.67V202H213a9.74,9.74,0,0,1-1.36,3.83c-.56.7-1.16,1.44-4,1.44h-3V194.39h4.45a32.31,32.31,0,0,1,3.92.19c2,.23,4.3,3.73,4.85,5.78h1.69v-7.79H195.16v1.63a12.56,12.56,0,0,1,3.31.8,2.19,2.19,0,0,1,1.31,2.28v23.25a2.24,2.24,0,0,1-1.31,2.28,22.73,22.73,0,0,1-3.31.47v1.64H221Z" transform="translate(-161.6 -96.26)" fill="#552448"/><path d="M259.47,224.92v-1.64a8.81,8.81,0,0,1-3-.61,9.69,9.69,0,0,1-3.41-3.08c-3.31-4.43-4.34-6-7.89-10.59,4.48-1.35,7.89-3.6,7.89-8.73,0-5.55-4.85-7.7-10.17-7.7H228v1.63a17.73,17.73,0,0,1,3,.56,2.28,2.28,0,0,1,1.31,2.38v23.39a2.28,2.28,0,0,1-1.31,2.33,18.77,18.77,0,0,1-3,.42v1.64h13.67v-1.64a20.31,20.31,0,0,1-3.17-.42,2.23,2.23,0,0,1-1.31-2.33V210.26h3.27a165.75,165.75,0,0,1,10.32,14.66Zm-12-24.14c0,4.67-3.13,7.52-7.33,7.52h-3V194.44H241C244.59,194.44,247.48,196.3,247.48,200.78Z" transform="translate(-161.6 -96.26)" fill="#552448"/><path d="M294,224.92v-1.64a8.79,8.79,0,0,1-2.94-.61,11.8,11.8,0,0,1-3.64-3.08c-3.88-4.85-6.11-7.74-10.55-12.79,4-3.78,6.16-6.44,9.94-10.73,1.5-1.68,4.86-1.87,5.32-1.87v-1.63H280v1.63c.79.05,3.36.19,3.36,1.12,0,2.24-5.51,8.22-11.11,12.88h-.42V197.05c0-1,.23-1.91,1.31-2.29a13.71,13.71,0,0,1,3-.56v-1.63H262.7v1.63a11,11,0,0,1,2.94.8,2.25,2.25,0,0,1,1.31,2.28v23.34a2.23,2.23,0,0,1-1.31,2.29,19.16,19.16,0,0,1-2.94.37v1.64h13.39v-1.64a12.73,12.73,0,0,1-3-.61,2.36,2.36,0,0,1-1.31-2.33V209.09h.56a113.52,113.52,0,0,1,12.56,15.83Z" transform="translate(-161.6 -96.26)" fill="#552448"/><path d="M362.43,224.92v-1.64a11,11,0,0,1-2.94-.61,2.4,2.4,0,0,1-1.31-2.33V197.05a2.13,2.13,0,0,1,1.31-2.29,13.26,13.26,0,0,1,2.94-.56v-1.63H349v1.63a11.35,11.35,0,0,1,3,.8,2.25,2.25,0,0,1,1.31,2.28v9.81H338.16v-10c0-1,.23-1.91,1.26-2.29a13.7,13.7,0,0,1,2.94-.56v-1.63H329v1.63a11.32,11.32,0,0,1,3,.8,2.29,2.29,0,0,1,1.35,2.28v23.34a2.19,2.19,0,0,1-1.35,2.29,19.22,19.22,0,0,1-3,.37v1.64h13.4v-1.64a11,11,0,0,1-2.94-.61,2.36,2.36,0,0,1-1.26-2.33V209.09h15.17v11.53a2.16,2.16,0,0,1-1.31,2.29,19.08,19.08,0,0,1-3,.37v1.64Z" transform="translate(-161.6 -96.26)" fill="#552448"/><path d="M383.43,224.92v-1.64a17,17,0,0,1-3.4-.61,2.27,2.27,0,0,1-1.45-2.28V197a2,2,0,0,1,1.45-2.25,17.61,17.61,0,0,1,3.4-.56v-1.63H368.87v1.63a15,15,0,0,1,3.41.8,2.08,2.08,0,0,1,1.45,2.23v23.44a2.1,2.1,0,0,1-1.45,2.24,25.43,25.43,0,0,1-3.41.37v1.64Z" transform="translate(-161.6 -96.26)" fill="#552448"/><path d="M421.39,224.92v-1.64a8.81,8.81,0,0,1-3-.61,9.61,9.61,0,0,1-3.41-3.08c-3.32-4.43-4.34-6-7.89-10.59,4.48-1.35,7.89-3.6,7.89-8.73,0-5.55-4.85-7.7-10.18-7.7H389.89v1.63a17.73,17.73,0,0,1,3,.56,2.28,2.28,0,0,1,1.31,2.38v23.39a2.28,2.28,0,0,1-1.31,2.33,18.93,18.93,0,0,1-3,.42v1.64h13.67v-1.64a20.15,20.15,0,0,1-3.17-.42,2.22,2.22,0,0,1-1.31-2.33V210.26h3.27a165.75,165.75,0,0,1,10.32,14.66Zm-12-24.14c0,4.67-3.12,7.52-7.33,7.52h-3V194.44H403C406.51,194.44,409.4,196.3,409.4,200.78Z" transform="translate(-161.6 -96.26)" fill="#552448"/><path d="M450.4,215.39h-1.64a23.77,23.77,0,0,1-3.63,6.58c-1.13,1.17-3.72,1.08-6.15,1.08-4.71,0-5.51-.42-5.51-4.25v-9.71h3c2.8,0,3.4.75,4,1.4a9.67,9.67,0,0,1,1.36,4.11h1.68V202h-1.68a9.58,9.58,0,0,1-1.36,3.83c-.56.7-1.16,1.44-4,1.44h-3V194.39h4.47a32.42,32.42,0,0,1,3.92.19c1.95.23,4.29,3.73,4.85,5.78h1.68v-7.79H424v1.63a12.46,12.46,0,0,1,3.31.8,2.19,2.19,0,0,1,1.31,2.28v23.25a2.24,2.24,0,0,1-1.31,2.28,22.53,22.53,0,0,1-3.31.47v1.64h25.79Z" transform="translate(-161.6 -96.26)" fill="#552448"/><path d="M204.54,267.78v-1.64a11,11,0,0,1-2.94-.6,2.41,2.41,0,0,1-1.31-2.34V239.91a2.12,2.12,0,0,1,1.31-2.28,12.61,12.61,0,0,1,2.94-.56v-1.63H191.15v1.63a11,11,0,0,1,3,.79,2.27,2.27,0,0,1,1.31,2.29v9.79H180.27v-10c0-1,.24-1.91,1.26-2.28a13.12,13.12,0,0,1,2.94-.56v-1.63H171.08v1.63a11,11,0,0,1,3,.79,2.31,2.31,0,0,1,1.36,2.29v23.33a2.2,2.2,0,0,1-1.36,2.29,18,18,0,0,1-3,.37v1.64h13.39v-1.64a11.09,11.09,0,0,1-2.94-.6,2.37,2.37,0,0,1-1.26-2.34V252h15.17v11.52a2.16,2.16,0,0,1-1.31,2.29,18,18,0,0,1-3,.37v1.64Z" transform="translate(-161.6 -96.26)" fill="#552448"/><path d="M240.19,267.78v-1.64a7.67,7.67,0,0,1-2.8-.74,4.91,4.91,0,0,1-1.95-2.52L224.66,235h-1.83c-3.54,9.05-7.32,19-10.64,27.21a5.91,5.91,0,0,1-2.38,3.12,7,7,0,0,1-2.94.84v1.64h12.19v-1.64c-1.5-.09-4.68-.51-4.68-2a9.35,9.35,0,0,1,.52-2.56c.42-1.49,1.07-3.26,1.73-5H228l2.71,7.29a3.4,3.4,0,0,1,.18,1c0,.85-2.66,1.22-4.15,1.31v1.64Zm-13-13.21h-9.7l4.8-12.56Z" transform="translate(-161.6 -96.26)" fill="#552448"/><path d="M267.17,244.21v-8.77H239v8.77h1.64c.51-2.06,2.94-6.54,4.94-6.81,1.13-.14,2.94-.19,3.78-.19h1.31V263.3a2.22,2.22,0,0,1-1.45,2.33,23.16,23.16,0,0,1-3.73.51v1.64h15.26v-1.64a20.71,20.71,0,0,1-3.78-.7,2.41,2.41,0,0,1-1.45-2.38V237.21h1.36a33.28,33.28,0,0,1,3.73.19c2,.27,4.48,4.75,5,6.81Z" transform="translate(-161.6 -96.26)" fill="#552448"/><path d="M304.81,267.78v-1.64a11.09,11.09,0,0,1-2.94-.6,2.41,2.41,0,0,1-1.31-2.34V239.91a2.12,2.12,0,0,1,1.31-2.28,12.81,12.81,0,0,1,2.94-.56v-1.63h-13.4v1.63a11,11,0,0,1,3,.79,2.27,2.27,0,0,1,1.3,2.29v9.79H280.54v-10c0-1,.24-1.91,1.26-2.28a13.22,13.22,0,0,1,2.94-.56v-1.63H271.35v1.63a11,11,0,0,1,3,.79,2.3,2.3,0,0,1,1.35,2.29v23.33a2.2,2.2,0,0,1-1.35,2.29,18.08,18.08,0,0,1-3,.37v1.64h13.39v-1.64a11.09,11.09,0,0,1-2.94-.6,2.37,2.37,0,0,1-1.26-2.34V252h15.17v11.52a2.17,2.17,0,0,1-1.3,2.29,18.07,18.07,0,0,1-3,.37v1.64Z" transform="translate(-161.6 -96.26)" fill="#552448"/><path d="M340.46,267.78v-1.64a7.72,7.72,0,0,1-2.8-.74,5.09,5.09,0,0,1-2-2.52L324.93,235h-1.82c-3.55,9.05-7.33,19-10.64,27.21a6,6,0,0,1-2.39,3.12,6.93,6.93,0,0,1-2.93.84v1.64h12.18v-1.64c-1.5-.09-4.67-.51-4.67-2a9.66,9.66,0,0,1,.51-2.56c.42-1.49,1.08-3.26,1.73-5h11.34l2.71,7.29a3.4,3.4,0,0,1,.18,1c0,.85-2.66,1.22-4.15,1.31v1.64Zm-13-13.21h-9.71L322.55,242Z" transform="translate(-161.6 -96.26)" fill="#552448"/><path d="M383.76,237.07v-1.63H372v1.63c2,.14,4.48.51,4.48,2a18.14,18.14,0,0,1-.84,4.25c-1,4-2.57,9.52-4.76,17.08l-8.12-24.5h-2.24l-8.07,24c-3-10.55-5.23-18.15-5.84-20.44a10.46,10.46,0,0,1-.19-1.21c0-.94,2.71-1.08,4.2-1.17v-1.63H337.45v1.63a6.28,6.28,0,0,1,2.72.79,3.85,3.85,0,0,1,1.67,2.29l7.94,28h2l8.5-24.88,8.17,24.88h2.1c3-9.85,6.53-21.24,8.35-27.31a4.68,4.68,0,0,1,2.15-2.94A6.29,6.29,0,0,1,383.76,237.07Z" transform="translate(-161.6 -96.26)" fill="#552448"/><path d="M413.28,267.78v-1.64a7.56,7.56,0,0,1-2.8-.74,5,5,0,0,1-2-2.52L397.73,235h-1.82c-3.54,9.05-7.33,19-10.64,27.21a6,6,0,0,1-2.38,3.12,7,7,0,0,1-2.94.84v1.64h12.18v-1.64c-1.49-.09-4.66-.51-4.66-2a9.27,9.27,0,0,1,.51-2.56c.42-1.49,1.07-3.26,1.73-5H401l2.71,7.29a3.1,3.1,0,0,1,.19,1c0,.85-2.66,1.22-4.15,1.31v1.64Zm-13-13.21h-9.71L395.35,242Z" transform="translate(-161.6 -96.26)" fill="#552448"/><path d="M440.92,237.07v-1.63H429.68v1.63c1.91.14,4.29.28,4.29,1.68,0,.79-3.26,6.3-7.37,12.88-4.11-7.47-7.09-12.84-7.09-13.49,0-1,2.75-1,4.24-1.07v-1.63H410v1.63a6.18,6.18,0,0,1,2.65.75,7.5,7.5,0,0,1,2.66,3.12c2,3.46,3.74,6.72,5.93,11a13.65,13.65,0,0,1,1.5,3.5v7.84a2.3,2.3,0,0,1-1.41,2.43,22.69,22.69,0,0,1-3.68.46v1.64h15.12v-1.64a18.93,18.93,0,0,1-3.69-.7,2.43,2.43,0,0,1-1.49-2.42v-6.16A7.64,7.64,0,0,1,429,252a135.85,135.85,0,0,1,7-11.63,6.56,6.56,0,0,1,2.43-2.42A8,8,0,0,1,440.92,237.07Z" transform="translate(-161.6 -96.26)" fill="#552448"/><path d="M221.25,299.28v-1.06a11.67,11.67,0,0,0,1.94-.24,1.41,1.41,0,0,0,.85-1.49V289h-9.86v7.31a1.52,1.52,0,0,0,.82,1.51,6.87,6.87,0,0,0,1.91.4v1.06h-8.7v-1.06a12,12,0,0,0,1.94-.24,1.45,1.45,0,0,0,.88-1.49V281.32a1.49,1.49,0,0,0-.88-1.48,7.16,7.16,0,0,0-1.94-.52v-1.06h8.7v1.06a9,9,0,0,0-1.91.36c-.67.25-.82.82-.82,1.49v6.52H224v-6.37a1.45,1.45,0,0,0-.85-1.48,7,7,0,0,0-1.94-.52v-1.06H230v1.06a8.46,8.46,0,0,0-1.91.36,1.39,1.39,0,0,0-.85,1.49v15.14a1.54,1.54,0,0,0,.85,1.51,6.72,6.72,0,0,0,1.91.4v1.06Z" transform="translate(-161.6 -96.26)" fill="#552448"/><path d="M239.11,299.74c-3.73,0-7-3-7-7.71,0-4.58,2.88-7.77,7.22-7.77s7,3.25,7,7.56S243.79,299.74,239.11,299.74Zm.19-14.35c-3.22,0-4.13,3.45-4.13,6.4,0,3.67,1.21,6.82,4.13,6.82,2.76,0,4-3.09,4-6.76C243.3,288.63,242.3,285.39,239.3,285.39Z" transform="translate(-161.6 -96.26)" fill="#552448"/><path d="M266.34,299.28v-1a7.69,7.69,0,0,0,1.3-.18,1.23,1.23,0,0,0,.82-1.34v-7.55c0-2.06-1.06-3.22-2.46-3.22a4.23,4.23,0,0,0-3.7,2.19v8.43a1.34,1.34,0,0,0,.79,1.37,4.34,4.34,0,0,0,1.33.3v1h-7v-1a6.82,6.82,0,0,0,1.24-.18,1.23,1.23,0,0,0,.82-1.34v-7.55c0-2.06-1.06-3.22-2.46-3.22a4.26,4.26,0,0,0-3.7,2.22v8.37a1.36,1.36,0,0,0,.82,1.37,4,4,0,0,0,1.37.33v1h-7.1v-1a7.93,7.93,0,0,0,1.33-.18,1.23,1.23,0,0,0,.82-1.34v-9.07a1.86,1.86,0,0,0-.82-1.51,3.72,3.72,0,0,0-1.55-.43v-1l4.89-.3.21.21v2.06h.09c1.18-1.15,2.28-2.52,4.89-2.52a4.18,4.18,0,0,1,3.91,2.61c1.24-1.18,2.43-2.61,5-2.61,2.82,0,4,2.07,4,4.95v7.43A1.34,1.34,0,0,0,272,298a5,5,0,0,0,1.42.3v1Z" transform="translate(-161.6 -96.26)" fill="#552448"/><path d="M282.15,299.68c-4.76,0-7-3.55-7-7.83,0-3.88,2.51-7.59,6.67-7.59,4.34,0,5.95,2.95,5.95,6.28v1h-9.68c0,3.74,1.42,6.53,4.88,6.53,2.13,0,3.07-1,4.13-2.82l1,.63A6.71,6.71,0,0,1,282.15,299.68Zm-.33-14.29c-2,0-3.58,1.76-3.7,4.88h6.76C284.88,287.84,284.31,285.39,281.82,285.39Z" transform="translate(-161.6 -96.26)" fill="#552448"/><path d="M298.19,299.71a10.61,10.61,0,0,1-5.25-1.49l-.63,1.06h-1.19l-.21-7.19h1.18c.94,3.34,2.76,6.34,6.37,6.34,2.79,0,4-1.49,4-3.7a4.33,4.33,0,0,0-2.82-4c-1.76-.7-2.7-1-4.37-1.73-2.34-1.07-3.76-2.73-3.76-5.49,0-3.25,2.91-5.71,6.37-5.71a8.73,8.73,0,0,1,4.7,1.46l.61-1h1.18l.12,7h-1.21c-.88-3.21-2-6.15-5.59-6.15a3.23,3.23,0,0,0-3.39,3.12,3.83,3.83,0,0,0,2.48,3.73c1.46.7,2.8,1.09,4.13,1.7,2.46,1.06,4.46,2.4,4.46,5.67C305.35,297.07,302.29,299.71,298.19,299.71Z" transform="translate(-161.6 -96.26)" fill="#552448"/><path d="M315.27,299.68c-4.76,0-7-3.55-7-7.83,0-3.88,2.52-7.59,6.68-7.59,4.34,0,5.94,2.95,5.94,6.28v1h-9.67c0,3.74,1.42,6.53,4.88,6.53,2.12,0,3.06-1,4.13-2.82l1,.63A6.72,6.72,0,0,1,315.27,299.68Zm-.33-14.29c-2,0-3.58,1.76-3.7,4.88H318C318,287.84,317.42,285.39,314.94,285.39Z" transform="translate(-161.6 -96.26)" fill="#552448"/><path d="M332.87,288.48c-1.12,0-1.7-.67-1.7-1.36a6.07,6.07,0,0,1,.15-1.13,4.34,4.34,0,0,0-3.21,2.16v8.49a1.3,1.3,0,0,0,.81,1.34,8.54,8.54,0,0,0,2,.33v1h-7.71v-1a8.06,8.06,0,0,0,1.34-.18,1.24,1.24,0,0,0,.81-1.34v-9a2.16,2.16,0,0,0-.81-1.63,3.48,3.48,0,0,0-1.49-.37v-1l4.85-.3.22.21v2h.06a5.58,5.58,0,0,1,4.09-2.43,2.06,2.06,0,0,1,2.13,2.25C334.39,287.54,333.9,288.48,332.87,288.48Z" transform="translate(-161.6 -96.26)" fill="#552448"/><path d="M349.47,287.33c-1.25,2.91-2.37,5.37-3.74,8.67a28,28,0,0,0-1.24,3.4h-1.18c-2.25-5.58-2.88-7.1-5-12.19a2.89,2.89,0,0,0-2.27-1.55v-1h6.73v1c-.7,0-1.76.18-1.76.64,0,.06.12.36.21.66l3.52,8.59c.73-1.7,2-4.64,3.1-7.4a4.7,4.7,0,0,0,.42-1.46c0-.7-1.55-1.06-2-1.12v-.94h5.58v.88A3.1,3.1,0,0,0,349.47,287.33Z" transform="translate(-161.6 -96.26)" fill="#552448"/><path d="M354,299.28v-1a8.06,8.06,0,0,0,1.34-.18,1.24,1.24,0,0,0,.81-1.34v-9a1.94,1.94,0,0,0-.81-1.54,4.5,4.5,0,0,0-1.79-.46v-1l5.15-.3.22.21v11.89a1.34,1.34,0,0,0,.81,1.37,4.62,4.62,0,0,0,1.34.33v1Zm3.28-18.44a2,2,0,0,1-1.85-2,2,2,0,0,1,1.85-2,1.91,1.91,0,0,1,1.94,1.91A2,2,0,0,1,357.28,280.84Z" transform="translate(-161.6 -96.26)" fill="#552448"/><path d="M369.6,299.68c-4.49,0-6.76-3.34-6.76-7.77,0-4,2.7-7.65,7-7.65,3.21,0,4.85,1.73,4.85,3.83,0,1-.42,1.88-1.52,1.88s-1.85-.7-1.85-1.43a16.1,16.1,0,0,1,.4-2.39,2.12,2.12,0,0,0-1.94-.76c-1.82,0-3.83,1.63-3.83,6.4,0,3.58,1.7,6.25,4.43,6.25,1.94,0,3.1-1,4.19-2.79l1,.63A7,7,0,0,1,369.6,299.68Z" transform="translate(-161.6 -96.26)" fill="#552448"/><path d="M384.39,299.68c-4.76,0-7-3.55-7-7.83,0-3.88,2.51-7.59,6.67-7.59,4.34,0,6,2.95,6,6.28v1h-9.68c0,3.74,1.42,6.53,4.88,6.53,2.13,0,3.07-1,4.13-2.82l1,.63A6.71,6.71,0,0,1,384.39,299.68Zm-.33-14.29c-2,0-3.58,1.76-3.7,4.88h6.76C387.12,287.84,386.55,285.39,384.06,285.39Z" transform="translate(-161.6 -96.26)" fill="#552448"/><path d="M398.33,299.68a6.64,6.64,0,0,1-3.88-1.31l-.3.94h-1.1l-.15-5.07h1c.37,1.58,2,4.28,4.65,4.28,1.91,0,3-.91,3-2.49s-1.34-2.3-3.76-3c-2-.61-4.49-1.7-4.49-4.46,0-2.39,1.91-4.28,4.91-4.28a7.08,7.08,0,0,1,3.22.76l.33-.79h1.06l.25,4.71h-1a4,4,0,0,0-3.85-3.55c-1.61,0-2.61.94-2.61,2.09,0,1.76,1.22,2.18,3.7,3,2.7.88,4.55,1.94,4.55,4.58C403.79,297.92,401.37,299.68,398.33,299.68Z" transform="translate(-161.6 -96.26)" fill="#552448"/></svg>